<svg xmlns="http://www.w3.org/2000/svg" viewBox="0 0 200 200" width="200" height="200" role="img" aria-label="Brian Du"><title>Brian Du</title><rect width="200" height="200" rx="56" fill="#8E9BD1"></rect><g transform="translate(30 30)"><path d="M30 22H70a48 48 0 0 1 0 96H30Z" fill="#171A22"></path><path d="M45 36h25a34 34 0 0 1 0 68H45Z" fill="#F7F8FB"></path><path d="M45 24h8.5a25.5 25.5 0 0 1 0 51H45Z" fill="#171A22"></path><path d="M45 65h8.5a25.5 25.5 0 0 1 0 51H45Z" fill="#171A22"></path><path d="M45 37h8.5a12.5 12.5 0 0 1 0 25H45Z" fill="#8E9BD1"></path><path d="M45 78h8.5a12.5 12.5 0 0 1 0 25H45Z" fill="#8E9BD1"></path></g></svg>